<svg xmlns="http://www.w3.org/2000/svg" viewBox="455.6 0.2 504.5 560"><path d="M493.1 332c13.3 0 23.1 3.6 29.3 11 5.5 6.4 8.3 15.3 8.3 26.7v22.9c0 11.2-4.3 20.7-12.7 28.4l17.6 68.9h-25.8l-14.5-59.6h-15.9v59.4h-23.8v-158h37.6v.3h-.1zm14.3 38.1c0-9.1-4.5-13.8-13.6-13.8h-14.3v50.5h14.3c3.8 0 7.1-1.4 9.6-4 2.6-2.8 4-5.9 4-9.6v-23.1zm48.4 120V332h67.9v23.9h-44V399H612v24h-32.2v43.1h43.9V490h-67.8v.1zm111-158.2l31.5 106.2V331.9h23.8V490h-25.7l-32.7-101.1V490h-23.8V331.9h26.9zm103.5 0l31.6 106.2V331.9h23.8V490h-25.5l-32.7-101.1V490h-23.8V331.9h26.6zm100.6 158.2H847V332h23.8v158.1zm21.3 0V332h67.9v23.9h-43.9V399h32.2v24h-32.2v43.1h43.9V490h-67.9v.1zm-313.6 36.7h31.2v2.2c0 17.1-14.1 31-31.2 31s-31-14-31-31c0-17.1 14-31 31-31 8.4 0 16.2 3.4 21.9 9l-1.2 1c-5.3-5.2-12.6-8.4-20.7-8.4-16.4 0-29.5 13.1-29.5 29.5s13.1 29.5 29.5 29.5 29.5-13.6 29.5-29.5v-.5h-29.5v-1.8zm25 33.4l28.9-62h1.9l28.9 62h-1.9l-9.3-20h-37.6l-9.1 20h-1.8zm11.9-21.5h35.8l-17.9-38.6-17.9 38.6zm112.8-39l-31 31-31-31v60.5h-1.7v-62h2.4l30.3 30.3 30.3-30.3h2.4v62h-1.7v-60.5zm10.2 60.5v-62h1.6v62h-1.6zm12.7-60.5V560h-1.7v-62h2.8l47.9 60.3V498h1.7v62h-2.6l-48.1-60.3zm85.6 27.1H868v2.2c0 17.1-14.1 31-31.2 31s-31-14-31-31c0-17.1 14-31 31-31 8.4 0 16.2 3.4 21.9 9l-1.2 1c-5.3-5.2-12.6-8.4-20.7-8.4-16.4 0-29.5 13.1-29.5 29.5s13.1 29.5 29.5 29.5 29.5-13.6 29.5-29.5v-.5h-29.5v-1.8zm-87.7-296.9l-21.7-40.8-4.1-7.8-3.8-7.2c20.5-13.3 35.7-34.3 41.2-59.1 1.4-6.5 2.2-13.4 2.2-20.3 0-7.1-.7-13.8-2.2-20.3C751.4 32 713.7.3 668.4.3h-94.6v42l7.4 20.8h82.4c9.8 0 17.7 14.1 17.7 31.5 0 16.2-6.9 29.5-15.7 31.4-.7.2-1.4.2-2.1.2h-80.7c4.8 39.3 14.3 35.7 35.7 48.9l7.4 14h17.2l21.7 40.8h-17.2L687 304h101.1l-39-74.1z" fill="#5A5963"/></svg>