<?xml version="1.0" encoding="utf-8"?>
<!-- Generator: Adobe Illustrator 18.0.0, SVG Export Plug-In . SVG Version: 6.00 Build 0)  -->
<!DOCTYPE svg PUBLIC "-//W3C//DTD SVG 1.1//EN" "http://www.w3.org/Graphics/SVG/1.1/DTD/svg11.dtd">
<svg version="1.1" id="Layer_1" xmlns="http://www.w3.org/2000/svg" xmlns:xlink="http://www.w3.org/1999/xlink" x="0px" y="0px"
	 viewBox="455.6 0.2 504.5 560" enable-background="new 455.6 0.2 504.5 560" xml:space="preserve">
<g>
	<path fill="#5A5963" d="M493.1,332c13.3,0,23.1,3.6,29.3,11c5.5,6.4,8.3,15.3,8.3,26.7v22.9c0,11.2-4.3,20.7-12.7,28.4l17.6,68.9
		h-25.8l-14.5-59.6c-0.7,0-1.4,0-2.1,0h-13.8v59.4h-23.8V331.7h37.6v0.3H493.1z M507.4,370.1c0-9.1-4.5-13.8-13.6-13.8h-14.3v50.5
		h14.3c3.8,0,7.1-1.4,9.6-4c2.6-2.8,4-5.9,4-9.6V370.1z"/>
	<path fill="#5A5963" d="M555.8,490.1V332h67.9v23.9h-44V399H612V423h-32.2v43.1h43.9V490h-67.8V490.1z"/>
	<path fill="#5A5963" d="M666.8,331.9l31.5,106.2V331.9h23.8V490h-25.7l-32.7-101.1V490h-23.8V331.9H666.8L666.8,331.9z"/>
	<path fill="#5A5963" d="M770.3,331.9l31.6,106.2V331.9h23.8V490h-25.5l-32.7-101.1V490h-23.8V331.9H770.3L770.3,331.9z"/>
	<path fill="#5A5963" d="M870.9,490.1H847V332h23.8V490.1z"/>
	<path fill="#5A5963" d="M892.2,490.1V332h67.9v23.9h-43.9V399h32.2V423h-32.2v43.1h43.9V490h-67.9V490.1z"/>
</g>
<g>
	<path fill="#5A5963" d="M578.6,526.8h31.2v2.2c0,17.1-14.1,31-31.2,31c-17.1,0-31-14-31-31c0-17.1,14-31,31-31
		c8.4,0,16.2,3.4,21.9,9l-1.2,1c-5.3-5.2-12.6-8.4-20.7-8.4c-16.4,0-29.5,13.1-29.5,29.5s13.1,29.5,29.5,29.5
		c16.4,0,29.5-13.6,29.5-29.5v-0.5h-29.5L578.6,526.8L578.6,526.8z"/>
	<path fill="#5A5963" d="M603.6,560.2l28.9-62h1.9l28.9,62h-1.9l-9.3-20h-37.6l-9.1,20H603.6z M615.5,538.7h35.8l-17.9-38.6
		L615.5,538.7z"/>
	<path fill="#5A5963" d="M728.3,499.7l-31,31l-31-31v60.5h-1.7v-62h2.4l30.3,30.3l30.3-30.3h2.4v62h-1.7L728.3,499.7L728.3,499.7z"
		/>
	<path fill="#5A5963" d="M738.5,560.2v-62h1.6v62H738.5z"/>
	<path fill="#5A5963" d="M751.2,499.7V560h-1.7v-62h2.8l47.9,60.3V498h1.7v62h-2.6L751.2,499.7z"/>
	<path fill="#5A5963" d="M836.8,526.8h31.2v2.2c0,17.1-14.1,31-31.2,31s-31-14-31-31c0-17.1,14-31,31-31c8.4,0,16.2,3.4,21.9,9
		l-1.2,1c-5.3-5.2-12.6-8.4-20.7-8.4c-16.4,0-29.5,13.1-29.5,29.5s13.1,29.5,29.5,29.5s29.5-13.6,29.5-29.5v-0.5h-29.5V526.8z"/>
</g>
<path fill="#5A5963" d="M749.1,229.9l-21.7-40.8l-4.1-7.8l-3.8-7.2c20.5-13.3,35.7-34.3,41.2-59.1c1.4-6.5,2.2-13.4,2.2-20.3
	c0-7.1-0.7-13.8-2.2-20.3c-9.3-42.4-47-74.1-92.3-74.1h-94.6v42l7.4,20.8h1.9h63.6h16.9c9.8,0,17.7,14.1,17.7,31.5
	c0,16.2-6.9,29.5-15.7,31.4c-0.7,0.2-1.4,0.2-2.1,0.2h-56.2h-24.5c4.8,39.3,14.3,35.7,35.7,48.9l7.4,14h17.2l21.7,40.8h-17.2
	L687,304h17.2h66.7h17.2L749.1,229.9z"/>
</svg>
